<?xml version="1.0" encoding="UTF-8" standalone="no"?>
<!DOCTYPE svg PUBLIC "-//W3C//DTD SVG 1.1//EN" "http://www.w3.org/Graphics/SVG/1.1/DTD/svg11.dtd">
<svg width="100%" height="100%" viewBox="0 0 695 142" version="1.1" xmlns="http://www.w3.org/2000/svg" xmlns:xlink="http://www.w3.org/1999/xlink" xml:space="preserve" xmlns:serif="http://www.serif.com/" style="fill-rule:evenodd;clip-rule:evenodd;stroke-linejoin:round;stroke-miterlimit:2;">
    <path d="M86.38,27.9C75.31,27.55 64.71,26.36 54.85,24.48L31.72,52.01L31.72,18.31C21.28,14.62 12.33,10.01 5.39,4.73L5.39,135.32C12.34,130.07 21.29,125.48 31.73,121.81L31.73,99.03L46.2,117.54C55.41,115.3 65.41,113.69 75.96,112.85L46.59,75.26L86.38,27.9Z" style="fill:white;fill-rule:nonzero;"/>
    <path d="M147,119.37C160.78,123.38 172.45,128.88 181.05,135.41L181.39,135.41L181.39,34.11C181.39,34.11 165.83,40.6 147,42.48L147,119.37Z" style="fill:white;fill-rule:nonzero;"/>
    <circle cx="174.89" cy="18.18" r="9.65" style="fill:white;"/>
    <circle cx="150.51" cy="27.78" r="6.5" style="fill:white;"/>
    <path d="M129.8,51.18C123.22,44.24 113.91,39.9 103.59,39.9C83.63,39.9 67.46,56.08 67.46,76.03C67.46,95.98 83.64,112.16 103.59,112.16C113.91,112.16 123.22,107.82 129.8,100.88C135.95,94.4 139.72,85.66 139.72,76.02C139.72,66.38 135.94,57.64 129.8,51.16L129.8,51.18ZM103.59,86.2C97.98,86.2 93.42,81.65 93.42,76.03C93.42,70.41 97.97,65.86 103.59,65.86C109.21,65.86 113.76,70.41 113.76,76.03C113.76,81.65 109.21,86.2 103.59,86.2Z" style="fill:white;fill-rule:nonzero;"/>
    <g>
        <path d="M294.61,40.1L274.01,40.1L264.13,72.84L249.45,40.23L248.02,40.23L233.34,72.93L223.42,40.1L202.82,40.1L226.8,112.27L232,112.27L248.64,76.8L265.42,112.27L270.67,112.27L287.65,61.08L293.34,43.91L294.61,40.1Z" style="fill:rgb(211,0,0);fill-rule:nonzero;"/>
        <path d="M346.85,93.93L346.85,40.1L327.81,40.1L327.81,111.82L368.28,111.82L368.28,93.93L346.85,93.93Z" style="fill:rgb(211,0,0);fill-rule:nonzero;"/>
        <rect x="299.04" y="40.1" width="19.04" height="71.72" style="fill:rgb(211,0,0);fill-rule:nonzero;"/>
        <path d="M398.71,93.93L398.71,40.1L379.67,40.1L379.67,111.82L420.14,111.82L420.14,93.93L398.71,93.93Z" style="fill:rgb(211,0,0);fill-rule:nonzero;"/>
        <path d="M485.48,89.53L500.21,89.53L492.87,72.53L485.48,89.53Z" style="fill-rule:nonzero;"/>
        <rect x="431.53" y="40.1" width="19.04" height="71.72" style="fill:rgb(211,0,0);fill-rule:nonzero;"/>
        <path d="M604.39,39.43L573.6,81.61L542.81,39.43L535.16,39.43L535.16,111.82L554.2,111.82L554.2,83.39L573.56,110.62L573.69,110.62L593,83.39L593,111.82L612.05,111.82L612.05,39.43L604.39,39.43Z" style="fill:rgb(211,0,0);fill-rule:nonzero;"/>
        <path d="M529.47,109.07L523.77,96.68L497.36,39.21L488.33,39.21L461.96,96.66L456.26,109.07L454.99,111.83L475.81,111.83L479.46,103.47L506.25,103.47L509.85,111.83L530.72,111.83L529.45,109.08L529.47,109.07ZM485.48,89.53L492.87,72.53L500.21,89.53L485.48,89.53Z" style="fill:rgb(211,0,0);fill-rule:nonzero;"/>
        <path d="M623.45,28.04L598.61,28.04L595.2,32.71L573.61,62.29L552.02,32.71L548.61,28.04L523.78,28.04L523.78,69.4L507.72,34.45L504.67,27.82L481.03,27.82L477.98,34.46L461.97,69.35L461.97,28.71L420.15,28.71L420.15,82.55L410.11,82.55L410.11,28.71L368.29,28.71L368.29,82.55L358.25,82.55L358.25,28.71L265.55,28.71L263.11,36.81L262.02,40.41L259.84,35.56L256.82,28.85L240.66,28.85L237.64,35.58L235.44,40.48L234.33,36.81L231.88,28.71L187.03,28.71L192.01,43.69L215.99,115.86L218.58,123.66L239.24,123.66L242.31,117.11L248.68,103.53L255.12,117.14L258.2,123.66L278.89,123.66L281.48,115.86L287.65,97.27L287.65,123.22L483.29,123.22L486.27,116.38L486.94,114.85L498.77,114.85L499.41,116.33L502.38,123.21L565.61,123.21L565.61,119.07L567.7,122L579.46,122L581.63,119.06L581.63,123.2L623.45,123.2L623.45,28.04ZM270.67,112.27L265.42,112.27L248.65,76.81L232.01,112.27L226.8,112.27L202.82,40.1L223.42,40.1L233.34,72.94L248.02,40.24L249.44,40.24L264.12,72.85L274,40.1L294.6,40.1L293.33,43.91L287.63,61.08L270.65,112.26L270.67,112.27ZM318.08,111.83L299.04,111.83L299.04,40.1L318.08,40.1L318.08,111.83ZM368.28,111.83L327.81,111.83L327.81,40.1L346.85,40.1L346.85,93.94L368.28,93.94L368.28,111.83ZM420.14,111.83L379.67,111.83L379.67,40.1L398.71,40.1L398.71,93.94L420.14,93.94L420.14,111.83ZM450.57,40.1L450.57,111.83L431.53,111.83L431.53,40.1L450.57,40.1ZM529.46,111.83L509.86,111.83L506.26,103.47L479.47,103.47L475.82,111.83L455,111.83L456.27,109.07L461.97,96.66L488.34,39.21L497.37,39.21L523.78,96.68L529.48,109.07L530.75,111.82L529.48,111.82L529.46,111.83ZM612.04,111.83L593,111.83L593,83.4L573.69,110.63L573.56,110.63L554.2,83.4L554.2,111.83L535.16,111.83L535.16,39.43L542.81,39.43L573.6,81.61L604.39,39.43L612.04,39.43L612.04,111.83Z" style="fill-rule:nonzero;"/>
    </g>
    <g>
        <path d="M601.47,114.5C600.1,111.26 599.35,107.71 599.19,104.2C598.78,99.3 598.95,94.39 599.36,89.49C599.64,84.66 600.72,79.1 597.68,74.86C596.2,72.79 594.06,71.39 591.89,70.24C594,71.51 596.05,73.02 597.37,75.08C600.09,79.36 598.73,84.64 598.22,89.38C596.6,101.66 595.72,116.09 605.63,125.35C605.69,125.41 605.75,125.45 605.82,125.49C604.01,122.8 602.63,119.64 601.79,116.12C601.66,115.58 601.57,115.05 601.47,114.51L601.47,114.5Z" style="fill-rule:nonzero;"/>
        <path d="M627.67,21.35C630.22,22.09 632.66,23.18 635.21,23.82C633.8,22.57 632.32,21.52 630.88,20.69C629.77,20.79 628.69,21 627.67,21.35Z" style="fill:white;fill-rule:nonzero;"/>
        <path d="M643.67,30.12C643.59,29.95 643.51,29.77 643.42,29.6C643.51,29.77 643.59,29.95 643.67,30.12Z" style="fill:white;fill-rule:nonzero;"/>
        <path d="M642.15,27.36C642.05,27.2 641.95,27.05 641.85,26.89C641.95,27.04 642.05,27.2 642.15,27.36Z" style="fill:white;fill-rule:nonzero;"/>
        <path d="M644.32,31.65C644.91,33.2 645.35,34.85 645.59,36.61C645.59,36.59 645.61,36.57 645.62,36.55C645.38,34.96 644.96,33.32 644.32,31.64L644.32,31.65Z" style="fill:white;fill-rule:nonzero;"/>
        <path d="M644.24,31.45C644.14,31.2 644.04,30.94 643.92,30.69C644.03,30.94 644.14,31.19 644.24,31.45Z" style="fill:white;fill-rule:nonzero;"/>
        <path d="M642.85,28.5C642.78,28.38 642.71,28.25 642.63,28.13C642.7,28.25 642.78,28.37 642.85,28.5Z" style="fill:white;fill-rule:nonzero;"/>
        <path d="M617.41,10.12C617.52,10.15 617.63,10.17 617.74,10.2C617.63,10.17 617.52,10.14 617.41,10.12Z" style="fill:white;fill-rule:nonzero;"/>
        <path d="M662.78,80.45C662.98,80.25 663.17,80.05 663.38,79.86C663.16,80.07 662.96,80.26 662.78,80.45Z" style="fill:white;fill-rule:nonzero;"/>
        <path d="M639.65,24.04C640.27,24.74 640.87,25.49 641.43,26.27C640.9,25.52 640.32,24.77 639.67,24.03L639.65,24.03L639.65,24.04Z" style="fill:white;fill-rule:nonzero;"/>
        <path d="M631.08,131.78C630.98,131.79 630.87,131.81 630.78,131.84C630.88,131.82 630.98,131.8 631.08,131.78Z" style="fill-rule:nonzero;"/>
        <path d="M620.92,70.39C620.53,67.42 620.38,63 622.77,61.92C626.45,60.27 627.04,64.84 627.04,64.84L628.09,65.16C629.45,64.28 630.8,63.41 632.1,62.49C629.97,59.28 627.3,56.46 624.28,54.08C623.47,53.45 622.62,52.86 621.75,52.34C622.61,56.53 621.75,60.82 620.45,64.84C620.06,65.96 619.78,66.82 619.63,67.93C619.47,69.13 619.51,70.37 619.72,71.59C619.92,71.37 620.12,71.14 620.34,70.93C620.53,70.75 620.72,70.58 620.92,70.41L620.92,70.39Z" style="fill:white;fill-rule:nonzero;"/>
        <path d="M683.16,68.51C681.55,69.58 679.89,70.54 678.21,71.45C677.69,71.73 677.17,72.01 676.64,72.29C676.12,72.56 675.6,72.84 675.08,73.11C673.56,73.9 672.04,74.68 670.55,75.51C665.99,78.01 661.49,81.07 658.91,85.74C659.47,84.64 660.12,83.63 660.84,82.69C660.78,82.75 660.73,82.81 660.67,82.88C653.06,79.83 666.07,67.88 665.94,57.91C665.82,48.62 670.38,44.81 670.42,44.78C666.31,36.13 659.43,28.22 649.05,21.93C648.39,23.26 646.04,22.87 646.22,21.03L646.22,20.3C646.22,19.72 646.2,19.14 646.14,18.57C646.08,17.95 645.98,17.34 645.84,16.74C645.07,13.27 643.19,10.05 640.69,7.49C641.29,9.89 641.4,12.39 641.82,14.82C641.92,15.42 642.04,16.02 642.2,16.61C642.21,16.66 642.22,16.71 642.23,16.76C642.43,17.42 642.71,18.06 643.03,18.67C643.33,19.23 643.67,19.78 644.06,20.29C643.58,19.75 643.14,19.16 642.76,18.53C636.91,15.71 630.17,13.33 622.42,11.52C621.07,11.1 619.81,10.76 618.58,10.44C617.51,12.67 614.76,12.02 613.08,12.08C611.4,12.15 611.83,12.94 610.71,14.46C609.29,16.38 602.79,16.26 600.86,11.86C599.88,9.61 596.84,10.4 596.38,9.95C595.31,10.24 594.25,10.55 593.19,10.86C604.33,16.97 601.35,20.29 607.7,22.08C616.12,15.55 622.24,15.26 623.24,15.26L623.71,15.26C626.65,15.26 631.57,17.1 636.02,20.65C636.05,20.68 636.09,20.7 636.12,20.73C636.16,20.76 636.2,20.79 636.24,20.83C636.99,21.44 637.73,22.1 638.44,22.81C638.83,23.2 639.22,23.62 639.6,24.04L639.62,24.04C639.36,23.75 639.11,23.45 638.84,23.16C644.69,19.87 640.96,24.68 646.12,25.22C651.28,25.76 649.98,29.62 649.98,29.62C649.98,29.62 647.94,33.94 650.84,38.76C653.73,43.58 653.15,45.88 653.15,45.88C653.15,45.88 651.97,51.8 648.59,53.68C648.48,53.74 648.38,53.78 648.27,53.83C645.74,66.45 638.56,77.89 627.92,85.43C628.19,85.81 628.46,86.13 628.75,86.37C631.34,88.52 636.08,85.89 641.38,83.77C646.68,81.65 648.25,89.45 646.73,92.27C644.65,96.14 636.74,100.54 633.52,101.69C630.3,102.84 629.2,105.06 627.62,107.47C623.92,113.11 615.66,115.07 613.4,112.26C610.69,108.92 613.2,101.42 610.88,99.89C606.63,97.1 606.64,95.23 606.67,94.94C599.88,110.59 605.77,129.11 620.29,132.06C621.81,132.37 623.36,132.52 624.92,132.52C626.83,132.52 628.77,132.28 630.72,131.84C630.82,131.81 630.92,131.79 631.02,131.78C640.34,129.58 650.07,122.55 658.99,111.77C661.13,109.18 663.13,106.35 664.95,103.32C663.84,103.96 662.7,104.58 661.5,105.13C660.49,105.58 659.31,105.13 658.85,104.12C658.36,103.05 658.92,101.78 660.03,101.4C660.2,101.33 660.37,101.26 660.54,101.18C663.35,99.99 666.01,98.51 668.45,96.77C669.3,96.16 670.12,95.53 670.91,94.86C671.81,94.1 672.67,93.3 673.49,92.47C679.69,86.17 683.49,77.83 683.11,68.5L683.16,68.51ZM636.25,124.15C633.63,125 630.82,123.56 629.97,120.94C629.12,118.32 630.56,115.51 633.18,114.66C635.8,113.81 638.61,115.25 639.46,117.87C640.31,120.49 638.87,123.3 636.25,124.15ZM649.03,68.95C647.13,70.94 647.35,68.86 647.35,68.86C647.35,68.86 648.57,65.75 649.98,65.54C651.39,65.33 649.03,68.95 649.03,68.95Z" style="fill:white;fill-rule:nonzero;"/>
        <path d="M633.18,114.66C630.56,115.51 629.12,118.32 629.97,120.94C630.82,123.56 633.63,125 636.25,124.15C638.87,123.3 640.31,120.49 639.46,117.87C638.61,115.25 635.8,113.81 633.18,114.66ZM633.15,120.17C632.51,120.38 631.81,120.03 631.61,119.38C631.4,118.74 631.75,118.04 632.4,117.84C633.04,117.63 633.74,117.98 633.94,118.63C634.15,119.27 633.8,119.97 633.15,120.17Z" style="fill-rule:nonzero;"/>
        <path d="M632.4,117.84C631.76,118.05 631.4,118.74 631.61,119.38C631.82,120.02 632.51,120.38 633.15,120.17C633.79,119.96 634.15,119.27 633.94,118.63C633.73,117.99 633.04,117.63 632.4,117.84Z" style="fill:white;fill-rule:nonzero;"/>
        <path d="M610.94,99.9C613.26,101.42 610.75,108.93 613.46,112.27C615.73,115.07 623.98,113.12 627.68,107.48C629.26,105.07 630.36,102.85 633.58,101.7C636.8,100.55 644.71,96.15 646.79,92.28C648.3,89.46 646.74,81.66 641.44,83.78C636.14,85.9 631.41,88.53 628.81,86.38C628.52,86.14 628.25,85.81 627.98,85.44C625.73,87.03 623.33,88.45 620.78,89.68C618.6,87.5 617.22,84.72 616.77,81.84C612.13,85.58 608.83,90.13 606.73,94.96C606.7,95.25 606.7,97.12 610.94,99.91L610.94,99.9Z" style="fill:rgb(211,0,0);fill-rule:nonzero;"/>
        <path d="M616.76,81.82L616.76,81.81C609.29,87.67 606.73,94.9 606.73,94.9L606.73,94.95C608.83,90.12 612.13,85.57 616.77,81.83L616.76,81.82Z" style="fill:rgb(211,0,0);fill-rule:nonzero;"/>
        <path d="M649.98,65.55C648.57,65.76 647.35,68.87 647.35,68.87C647.35,68.87 647.12,70.95 649.03,68.96C649.03,68.96 651.39,65.34 649.98,65.55Z" style="fill:rgb(211,0,0);fill-rule:nonzero;"/>
        <path d="M670.43,44.76C670.39,44.79 665.83,48.6 665.95,57.89C666.08,67.85 653.07,79.81 660.68,82.86C660.74,82.8 660.8,82.73 660.85,82.67C661.45,81.88 662.09,81.15 662.78,80.45C662.96,80.26 663.16,80.06 663.38,79.86C663.58,79.67 663.79,79.49 663.99,79.31C665.7,77.83 668.7,75.73 675.2,71.81L675.2,71.78C675.22,71.77 675.24,71.76 675.25,71.75C676.81,56.81 670.42,44.76 670.42,44.76L670.43,44.76Z" style="fill:rgb(211,0,0);fill-rule:nonzero;"/>
        <path d="M660.85,82.67C661.59,81.85 662.06,81.2 662.78,80.45C662.1,81.15 661.45,81.89 660.85,82.67Z" style="fill:rgb(211,0,0);fill-rule:nonzero;"/>
        <path d="M675.2,71.81C675.2,71.81 675.24,71.79 675.25,71.78L675.25,71.76C675.23,71.77 675.21,71.78 675.2,71.79L675.2,71.82L675.2,71.81Z" style="fill:rgb(211,0,0);fill-rule:nonzero;"/>
        <path d="M627.04,64.84C627.04,64.84 626.44,60.27 622.77,61.92C620.38,63 620.53,67.42 620.92,70.39C623.09,68.41 625.59,66.77 628.09,65.16L627.04,64.84Z" style="fill:rgb(211,0,0);fill-rule:nonzero;"/>
        <path d="M650.89,38.75C648,33.93 650.03,29.61 650.03,29.61C650.03,29.61 651.33,25.75 646.17,25.21C641.01,24.67 644.74,19.86 638.89,23.15C639.16,23.44 639.42,23.74 639.67,24.03C640.32,24.77 640.9,25.52 641.43,26.27C641.45,26.29 641.46,26.31 641.48,26.34C641.61,26.52 641.74,26.7 641.86,26.89C641.96,27.05 642.06,27.2 642.16,27.36C642.32,27.62 642.48,27.88 642.63,28.14C642.7,28.26 642.78,28.39 642.85,28.51C643.05,28.87 643.24,29.23 643.43,29.6C643.52,29.78 643.6,29.95 643.68,30.12C643.77,30.31 643.85,30.5 643.94,30.69C644.05,30.94 644.16,31.2 644.26,31.45C644.29,31.52 644.31,31.58 644.34,31.65C644.98,33.32 645.4,34.97 645.64,36.56C646.06,35.74 646.64,35.01 647.51,34.59L648.47,34.17L648.67,35.28C649.7,41.54 649.55,47.82 648.34,53.83C648.45,53.78 648.55,53.74 648.66,53.68C652.04,51.81 653.22,45.88 653.22,45.88C653.22,45.88 653.81,43.58 650.91,38.76L650.89,38.75Z" style="fill:rgb(211,0,0);fill-rule:nonzero;"/>
        <path d="M644.32,31.65C644.29,31.58 644.27,31.52 644.24,31.45C644.27,31.52 644.29,31.58 644.32,31.65Z" style="fill:rgb(211,0,0);fill-rule:nonzero;"/>
        <path d="M642.63,28.13C642.48,27.87 642.32,27.61 642.16,27.35C642.32,27.61 642.48,27.87 642.63,28.13Z" style="fill:rgb(211,0,0);fill-rule:nonzero;"/>
        <path d="M643.42,29.59C643.24,29.22 643.04,28.86 642.84,28.5C643.04,28.86 643.24,29.23 643.42,29.59Z" style="fill:rgb(211,0,0);fill-rule:nonzero;"/>
        <path d="M641.47,26.34C641.6,26.52 641.73,26.71 641.85,26.89C641.73,26.7 641.6,26.52 641.47,26.34Z" style="fill:rgb(211,0,0);fill-rule:nonzero;"/>
        <path d="M643.93,30.68C643.85,30.49 643.76,30.3 643.67,30.11C643.76,30.3 643.85,30.49 643.93,30.68Z" style="fill:rgb(211,0,0);fill-rule:nonzero;"/>
        <path d="M641.42,26.27C641.42,26.27 641.45,26.31 641.47,26.34C641.45,26.32 641.44,26.3 641.42,26.27Z" style="fill:rgb(211,0,0);fill-rule:nonzero;"/>
        <path d="M600.9,11.86C602.83,16.26 609.33,16.38 610.75,14.46C611.87,12.95 611.44,12.15 613.12,12.08C614.79,12.01 617.54,12.67 618.62,10.44C618.33,10.37 618.03,10.28 617.75,10.21C617.64,10.18 617.53,10.15 617.42,10.13C612.86,9.02 609.17,8.59 606,8.59C602.29,8.59 599.3,9.18 596.43,9.94C596.89,10.4 599.92,9.61 600.91,11.85L600.9,11.86Z" style="fill:rgb(211,0,0);fill-rule:nonzero;"/>
        <path d="M617.41,10.12C605.75,7.22 599.31,9.14 596.42,9.94C599.28,9.17 602.28,8.59 605.99,8.59C609.16,8.59 612.85,9.02 617.41,10.13L617.41,10.12Z" style="fill:rgb(211,0,0);fill-rule:nonzero;"/>
        <path d="M618.61,10.42C618.31,10.34 618.03,10.28 617.74,10.2C618.02,10.27 618.32,10.35 618.61,10.43L618.61,10.42Z" style="fill:rgb(211,0,0);fill-rule:nonzero;"/>
        <path d="M646.98,37.32C646.66,37.8 646.42,38.32 646.28,38.67C646.15,39.1 646.03,39.53 645.9,39.95C645.87,40.04 645.85,40.12 645.82,40.21C644.48,44.71 643.16,49.22 641.36,53.6C639.77,57.79 636.97,61.64 633.48,64.52C633.48,64.52 633.46,64.54 633.45,64.54C633.43,64.56 633.41,64.58 633.39,64.59C633.09,64.84 632.78,65.07 632.47,65.3C632.14,65.54 631.82,65.8 631.48,66.02C629.96,67.2 628.27,68.23 626.61,69.31C624.34,70.79 622.16,72.37 620.56,74.47C620.32,74.78 620.08,75.08 619.87,75.42C619.87,75.42 619.87,75.43 619.86,75.44C619.65,75.76 619.48,76.1 619.32,76.44C619.02,77.07 618.81,77.72 618.65,78.39C618.6,78.63 618.55,78.86 618.51,79.1C618.44,79.57 618.39,80.04 618.38,80.52L618.38,80.65C618.33,83.66 619.4,86.79 620.84,89.35C623.07,87.7 625.18,85.94 627.16,84.09C636.07,75.77 642.29,65.56 645.19,54.08C646.54,48.74 647.16,43.13 647,37.31L646.98,37.32Z" style="fill:white;fill-rule:nonzero;"/>
        <path d="M661.37,113.69C664.71,109.66 667.8,104.89 670.42,99.64C670.85,99.3 671.28,98.98 671.7,98.63C677.79,93.52 682.53,86.57 684.2,78.73C685.17,74.35 685.13,69.87 684.55,65.49L683.42,66.39C681.84,67.68 680.11,68.84 678.31,69.94C678.59,63.04 677.77,56.03 675.49,49.24C670.58,34.63 660.38,24.89 648.96,18.39C647.96,12.75 644.35,7.75 639.61,4.58L637.13,2.7L638.58,5.44C640.21,8.23 640.51,11.46 641.27,14.54C635.16,11.86 628.96,9.96 623.25,8.61C616.6,6.57 610.96,5.58 606.01,5.58C600.43,5.58 596.35,6.8 592.39,7.97L585.5,10.02L591.81,13.48C597.19,16.43 598.86,18.55 600.21,20.26C601.6,22.02 603.03,23.85 606.96,24.95L608.42,25.36L609.62,24.43C617.37,18.42 622.73,18.24 623.32,18.24L623.8,18.24C625.24,18.24 627.35,18.84 629.63,19.98C628.21,20.04 626.77,20.28 625.38,20.93L623.84,21.64C626.85,22.33 629.61,23.92 632.44,25.21C634.41,26.01 636.23,26.92 638.32,27.04C639.76,28.86 640.97,30.95 641.79,33.31C643.94,39.55 643.62,48.78 634.16,60.96C633.59,61.42 633,61.85 632.4,62.28C629.33,56.67 624.78,51.78 619.06,48.85L619.66,50.91C620.93,55.77 619.11,60.97 617.13,65.46C615.89,68.9 616.01,72.66 617.18,76.1C616.99,76.72 616.85,77.34 616.76,77.98C616.3,78.35 615.85,78.71 615.38,79.08C604.4,87.66 599.08,101.4 601.51,114.48C601.61,115.02 601.7,115.56 601.83,116.09C602.66,119.62 604.04,122.77 605.86,125.46C609.2,130.42 614.03,133.81 619.79,134.98C621.49,135.33 623.25,135.5 625.02,135.5C627.2,135.5 629.41,135.23 631.65,134.71C634.18,134.52 636.55,134.04 638.92,133.52C646.22,131.79 653.34,129.62 660.2,126.48C664.74,124.27 668.82,121.05 671.77,116.98C673.27,114.97 674.42,112.76 675.79,110.74C677.11,108.63 679.28,107.17 681.83,107.26C676.24,106.76 674.16,113.02 671.08,116.44C664.8,124.25 654.84,126.91 645.54,129.33C644.78,129.51 644.02,129.69 643.25,129.87C649.42,126.17 655.58,120.71 661.42,113.65L661.37,113.69ZM627.67,21.36C628.69,21.01 629.77,20.8 630.88,20.7C632.33,21.54 633.8,22.58 635.21,23.83C632.66,23.19 630.23,22.1 627.67,21.36ZM619.64,67.92C619.79,66.81 620.06,65.95 620.46,64.83C621.77,60.81 622.63,56.52 621.76,52.33C622.63,52.85 623.48,53.44 624.29,54.07C627.3,56.45 629.98,59.27 632.11,62.48C630.81,63.4 629.45,64.28 628.1,65.15C625.6,66.76 623.11,68.4 620.93,70.38C620.74,70.55 620.54,70.72 620.35,70.9C620.13,71.11 619.93,71.34 619.73,71.56C619.53,70.34 619.48,69.1 619.64,67.9L619.64,67.92ZM618.37,80.53C618.38,80.05 618.43,79.58 618.5,79.11C618.54,78.87 618.58,78.63 618.64,78.4C618.79,77.73 619.01,77.08 619.31,76.45C619.47,76.11 619.64,75.78 619.85,75.45C619.85,75.45 619.85,75.44 619.86,75.43C620.07,75.09 620.32,74.79 620.55,74.48C622.15,72.38 624.33,70.8 626.6,69.32C628.25,68.24 629.94,67.21 631.47,66.03C631.81,65.8 632.13,65.55 632.46,65.31C632.77,65.08 633.08,64.85 633.38,64.6C633.4,64.58 633.42,64.56 633.44,64.55C633.44,64.55 633.46,64.53 633.47,64.53C636.96,61.66 639.76,57.8 641.35,53.61C643.15,49.22 644.48,44.72 645.81,40.22C645.84,40.13 645.86,40.05 645.89,39.96C646.02,39.53 646.14,39.1 646.27,38.68C646.41,38.33 646.66,37.81 646.97,37.33C647.13,43.15 646.5,48.77 645.16,54.1C642.27,65.58 636.04,75.79 627.13,84.11C625.15,85.96 623.05,87.71 620.81,89.37C619.37,86.8 618.3,83.68 618.35,80.67L618.35,80.54L618.37,80.53ZM631.08,131.79C630.98,131.81 630.88,131.83 630.78,131.85C628.82,132.29 626.88,132.53 624.98,132.53C623.41,132.53 621.87,132.38 620.35,132.07C605.84,129.12 599.94,110.6 606.73,94.95L606.73,94.9C606.73,94.9 609.29,87.67 616.76,81.81C617.21,84.7 618.59,87.48 620.77,89.66C623.32,88.44 625.72,87.02 627.97,85.42C638.61,77.88 645.79,66.44 648.32,53.82C649.53,47.81 649.68,41.53 648.65,35.27L648.45,34.16L647.49,34.58C646.63,35.01 646.05,35.73 645.62,36.55C645.62,36.57 645.6,36.59 645.59,36.61C645.34,34.85 644.91,33.2 644.32,31.65C644.29,31.58 644.27,31.52 644.24,31.45C644.14,31.19 644.03,30.94 643.92,30.69C643.84,30.5 643.75,30.31 643.66,30.12C643.58,29.94 643.5,29.77 643.41,29.6C643.23,29.24 643.04,28.87 642.83,28.51C642.76,28.39 642.69,28.26 642.61,28.14C642.46,27.88 642.3,27.62 642.14,27.36C642.04,27.2 641.94,27.05 641.84,26.89C641.72,26.71 641.59,26.52 641.46,26.34C641.44,26.32 641.43,26.3 641.41,26.27C640.85,25.48 640.26,24.74 639.63,24.04C639.25,23.62 638.87,23.2 638.47,22.81C637.76,22.1 637.02,21.44 636.27,20.83C636.23,20.8 636.19,20.77 636.15,20.73C636.12,20.7 636.08,20.68 636.05,20.65C631.6,17.1 626.68,15.26 623.74,15.26L623.27,15.26C622.27,15.26 616.15,15.54 607.73,22.08C601.37,20.29 604.36,16.96 593.22,10.86C594.28,10.54 595.34,10.23 596.41,9.95C599.3,9.16 605.74,7.24 617.4,10.13C617.51,10.16 617.62,10.19 617.73,10.21C618.02,10.28 618.3,10.35 618.6,10.43C619.82,10.75 621.09,11.1 622.44,11.51C630.19,13.33 636.93,15.71 642.78,18.52C643.16,19.14 643.6,19.73 644.08,20.28C643.69,19.77 643.35,19.22 643.05,18.66C642.72,18.05 642.45,17.41 642.25,16.75C642.24,16.7 642.23,16.65 642.22,16.6C642.07,16.01 641.95,15.41 641.84,14.81C641.42,12.38 641.31,9.87 640.71,7.48C643.2,10.04 645.08,13.27 645.86,16.73C645.99,17.33 646.09,17.95 646.16,18.56C646.22,19.13 646.25,19.71 646.24,20.29L646.24,21.02C646.06,22.86 648.41,23.25 649.07,21.92C659.45,28.21 666.33,36.12 670.44,44.77C670.44,44.77 676.83,56.82 675.27,71.76L675.27,71.78C675.25,71.79 675.23,71.8 675.22,71.81C667.87,76.24 665,78.35 663.4,79.86C663.2,80.05 663,80.25 662.8,80.45C662.09,81.2 661.61,81.85 660.87,82.67C660.42,83.27 660,83.9 659.61,84.56C659.38,84.94 659.15,85.33 658.94,85.73C661.52,81.07 666.02,78.01 670.58,75.5C672.07,74.68 673.59,73.9 675.11,73.1C675.63,72.83 676.15,72.55 676.67,72.28C677.19,72 677.72,71.72 678.24,71.44C679.92,70.53 681.58,69.57 683.19,68.5C683.57,77.83 679.77,86.17 673.57,92.47C672.75,93.3 671.89,94.1 670.99,94.86C670.2,95.53 669.38,96.16 668.53,96.77C666.09,98.51 663.43,100 660.62,101.18C660.45,101.25 660.28,101.33 660.11,101.4C659,101.78 658.44,103.05 658.93,104.12C659.38,105.13 660.57,105.58 661.58,105.13C662.79,104.58 663.93,103.96 665.03,103.32C663.21,106.35 661.21,109.19 659.07,111.77C650.15,122.55 640.41,129.58 631.1,131.78L631.08,131.79Z" style="fill-rule:nonzero;"/>
    </g>
</svg>
